# Blender v2.81 (sub 16) OBJ File: 'plane.blend'
# www.blender.org
mtllib plane2.mtl
o Plane
v 0.092867 -0.909667 1.211725
v 2.092867 -0.909667 1.100614
v 1.538575 -0.909667 1.179037
v 1.481756 -0.909667 -0.149386
v 0.842867 -0.909667 -0.149386
v 0.222497 -0.909667 -0.047535
v 1.991015 -0.909667 -0.047535
v 1.579913 -0.909667 0.382131
v 0.657296 -0.909667 1.178546
v 0.259534 -0.909667 1.748762
v 0.684267 -0.909667 0.293234
v 0.092867 -0.909667 0.489503
v 1.101098 -0.909667 0.695007
v 1.926201 -0.909667 1.720984
v 2.092867 -0.909667 0.461725
v 1.092867 -0.909667 1.850614
v 0.429039 -0.909667 1.536430
v 1.601689 -0.909667 0.796067
v 0.640060 -0.909667 0.696295
v 0.916259 -0.909667 0.892879
v 0.113700 -0.909667 1.528854
v 1.349828 -0.909667 1.523675
v 1.572034 -0.909667 1.834410
v 0.092867 -0.909667 0.850614
v 1.172728 -0.909667 -0.149386
v 0.494488 -0.909667 -0.136655
v 1.834553 -0.909667 0.130690
v 0.868580 -0.909667 1.540063
v 1.847802 -0.909667 1.128034
v 2.072034 -0.909667 1.448993
v 1.535556 -0.909667 0.060796
v 1.774580 -0.909667 -0.136655
v 0.779213 -0.909667 0.054010
v 0.613701 -0.909667 1.837882
v 0.109071 -0.909667 0.172373
v 1.302016 -0.909667 0.550668
v 2.092867 -0.909667 0.770753
v 1.115928 -0.909667 1.215921
v 2.080136 -0.909667 0.168901
v 1.102801 -0.909667 0.292645
v 0.369641 -0.909667 0.827614
v 0.919035 -0.909667 0.511218
v 1.904174 -0.909667 0.429430
v 1.856656 -0.909667 0.748424
v 0.315693 -0.909667 1.220008
v 0.373446 -0.909667 0.387922
v 1.295960 -0.909667 0.893563
v 1.780994 -0.909667 1.494900
v 1.205582 -0.909667 0.096675
v 0.407155 -0.909667 0.072432
v 0.270563 -0.909667 0.976791
v 0.286168 -0.909667 0.190415
v 1.773693 -0.909667 0.883460
v 1.109032 -0.909667 1.013417
v 0.803225 -0.909667 0.699416
v 1.040802 -0.909667 0.147681
v 1.585802 -0.909667 1.623628
v 0.281944 -0.909667 1.439175
v 0.622511 -0.909667 1.645290
v 1.725684 -0.909667 0.023640
v 1.111838 -0.909667 0.425567
v 1.942891 -0.909667 0.642467
v 1.420732 -0.909667 0.737253
v 1.918846 -0.909667 1.363886
v 1.317505 -0.909667 0.016985
v 1.937876 -0.909667 0.235831
v 0.547356 -0.909667 -0.017822
v 0.462513 -0.909667 0.640569
v 1.115060 -0.909667 1.427853
vt 0.222222 0.055556
vt 0.166667 0.083333
vt 0.148148 0.055556
vt 0.166667 0.027778
vt 0.111111 0.111111
vt 0.111111 0.055556
vt 0.111111 0.000000
vt 0.777778 0.166667
vt 0.722222 0.194444
vt 0.703704 0.166667
vt 0.722222 0.138889
vt 0.666667 0.222222
vt 0.666667 0.166667
vt 0.666667 0.111111
vt 0.981482 0.129630
vt 0.944444 0.166667
vt 0.925926 0.148148
vt 0.942130 0.113426
vt 0.907407 0.203704
vt 0.891204 0.164352
vt 0.888889 0.111111
vt 0.222222 0.222222
vt 0.194444 0.277778
vt 0.148148 0.268519
vt 0.138889 0.236111
vt 0.166667 0.333333
vt 0.111111 0.291667
vt 0.055556 0.250000
vt 1.000000 0.500000
vt 0.944445 0.527778
vt 0.925926 0.500000
vt 0.944445 0.472222
vt 0.888889 0.555556
vt 0.888889 0.500000
vt 0.888889 0.444445
vt 0.546296 0.574074
vt 0.507202 0.611111
vt 0.482832 0.592593
vt 0.498843 0.557870
vt 0.472222 0.648148
vt 0.447917 0.608796
vt 0.444445 0.555556
vt 0.777778 0.777778
vt 0.722222 0.833333
vt 0.703704 0.814815
vt 0.722222 0.777778
vt 0.666667 0.888889
vt 0.666667 0.833333
vt 0.666667 0.777778
vt 0.888889 0.833333
vt 0.833333 0.861111
vt 0.814815 0.833333
vt 0.833333 0.805556
vt 0.777778 0.888889
vt 0.777778 0.833333
vt 0.777778 0.777778
vt 0.777778 0.888889
vt 0.750000 0.944445
vt 0.722222 0.925926
vt 0.722222 0.888889
vt 0.722222 1.000000
vt 0.694445 0.944445
vt 0.666667 0.888889
vt 0.500000 0.000000
vt 0.583333 0.055556
vt 0.537037 0.074074
vt 0.472222 0.055556
vt 0.666667 0.111111
vt 0.555556 0.111111
vt 0.444445 0.111111
vt 0.944445 0.000000
vt 0.972222 0.055556
vt 0.944445 0.074074
vt 0.916667 0.055556
vt 1.000000 0.111111
vt 0.944445 0.111111
vt 0.888889 0.111111
vt 0.997685 0.168981
vt 0.962963 0.185185
vt 1.000000 0.222222
vt 0.946759 0.219907
vt 0.833333 0.444445
vt 0.861111 0.500000
vt 0.833333 0.518519
vt 0.805556 0.500000
vt 0.888889 0.555556
vt 0.833333 0.555556
vt 0.777778 0.555556
vt 0.333333 0.555556
vt 0.333333 0.611111
vt 0.296296 0.629630
vt 0.277778 0.611111
vt 0.333333 0.666667
vt 0.277778 0.666667
vt 0.222222 0.666667
vt 0.582176 0.613426
vt 0.538387 0.629630
vt 0.611111 0.666667
vt 0.531250 0.664352
vt 1.000000 0.555556
vt 1.000000 0.611111
vt 0.962963 0.611111
vt 0.944445 0.583333
vt 1.000000 0.666667
vt 0.944445 0.638889
vt 0.888889 0.611111
vt 0.500000 0.666667
vt 0.527778 0.722222
vt 0.500000 0.740741
vt 0.472222 0.722222
vt 0.555556 0.777778
vt 0.500000 0.777778
vt 0.444445 0.777778
vt 0.222222 0.888889
vt 0.222222 0.944445
vt 0.185185 0.944445
vt 0.166667 0.916667
vt 0.222222 1.000000
vt 0.166667 0.972222
vt 0.111111 0.944445
vt 0.388889 0.888889
vt 0.416667 0.944445
vt 0.388889 0.962963
vt 0.361111 0.944445
vt 0.444445 1.000000
vt 0.388889 1.000000
vt 0.333333 1.000000
vn 0.0000 1.0000 -0.0000
usemtl None
s off
f 9/1/1 41/2/1 51/3/1 45/4/1
f 12/5/1 24/6/1 51/3/1 41/2/1
f 1/7/1 45/4/1 51/3/1 24/6/1
f 11/8/1 50/9/1 52/10/1 46/11/1
f 6/12/1 35/13/1 52/10/1 50/9/1
f 12/14/1 46/11/1 52/10/1 35/13/1
f 2/15/1 44/16/1 53/17/1 29/18/1
f 8/19/1 18/20/1 53/17/1 44/16/1
f 3/21/1 29/18/1 53/17/1 18/20/1
f 3/22/1 47/23/1 54/24/1 38/25/1
f 13/26/1 20/27/1 54/24/1 47/23/1
f 9/28/1 38/25/1 54/24/1 20/27/1
f 13/29/1 42/30/1 55/31/1 20/32/1
f 11/33/1 19/34/1 55/31/1 42/30/1
f 9/35/1 20/32/1 55/31/1 19/34/1
f 8/36/1 49/37/1 56/38/1 40/39/1
f 5/40/1 33/41/1 56/38/1 49/37/1
f 11/42/1 40/39/1 56/38/1 33/41/1
f 14/43/1 48/44/1 57/45/1 23/46/1
f 3/47/1 22/48/1 57/45/1 48/44/1
f 16/49/1 23/46/1 57/45/1 22/48/1
f 9/50/1 45/51/1 58/52/1 17/53/1
f 1/54/1 21/55/1 58/52/1 45/51/1
f 10/56/1 17/53/1 58/52/1 21/55/1
f 16/57/1 28/58/1 59/59/1 34/60/1
f 9/61/1 17/62/1 59/59/1 28/58/1
f 10/63/1 34/60/1 59/59/1 17/62/1
f 8/64/1 27/65/1 60/66/1 31/67/1
f 7/68/1 32/69/1 60/66/1 27/65/1
f 4/70/1 31/67/1 60/66/1 32/69/1
f 13/71/1 36/72/1 61/73/1 42/74/1
f 8/75/1 40/76/1 61/73/1 36/72/1
f 11/77/1 42/74/1 61/73/1 40/76/1
f 2/15/1 37/78/1 62/79/1 44/16/1
f 15/80/1 43/81/1 62/79/1 37/78/1
f 8/19/1 44/16/1 62/79/1 43/81/1
f 3/82/1 18/83/1 63/84/1 47/85/1
f 8/86/1 36/87/1 63/84/1 18/83/1
f 13/88/1 47/85/1 63/84/1 36/87/1
f 14/89/1 30/90/1 64/91/1 48/92/1
f 2/93/1 29/94/1 64/91/1 30/90/1
f 3/95/1 48/92/1 64/91/1 29/94/1
f 8/36/1 31/96/1 65/97/1 49/37/1
f 4/98/1 25/99/1 65/97/1 31/96/1
f 5/40/1 49/37/1 65/97/1 25/99/1
f 15/100/1 39/101/1 66/102/1 43/103/1
f 7/104/1 27/105/1 66/102/1 39/101/1
f 8/106/1 43/103/1 66/102/1 27/105/1
f 11/107/1 33/108/1 67/109/1 50/110/1
f 5/111/1 26/112/1 67/109/1 33/108/1
f 6/113/1 50/110/1 67/109/1 26/112/1
f 9/114/1 19/115/1 68/116/1 41/117/1
f 11/118/1 46/119/1 68/116/1 19/115/1
f 12/120/1 41/117/1 68/116/1 46/119/1
f 16/121/1 22/122/1 69/123/1 28/124/1
f 3/125/1 38/126/1 69/123/1 22/122/1
f 9/127/1 28/124/1 69/123/1 38/126/1
