# Blender v2.81 (sub 16) OBJ File: 'torus.blend'
# www.blender.org
mtllib torus.mtl
o Torus
v 1.257036 0.087211 -0.061219
v 0.738867 -0.075946 -0.191980
v 1.125617 -0.247945 -0.010052
v 0.833294 0.272608 -0.682132
v 0.961448 -0.212376 -0.718831
v 0.454578 -0.052312 -0.613758
v -0.166977 0.242423 -1.139075
v 0.211000 -0.076638 -1.280455
v 0.080656 0.066770 -0.748025
v -0.453697 -0.257644 -1.012023
v -0.583624 -0.078701 -0.530228
v -0.945853 -0.010330 -0.907387
v -0.868593 0.266471 -0.531201
v -1.233485 0.177650 0.260558
v -0.801249 -0.172929 0.240545
v -1.210964 -0.252413 -0.041902
v -0.686085 0.203849 0.991084
v -0.620421 0.146047 0.513450
v -0.486657 -0.073332 1.208673
v -0.271571 -0.256270 0.997065
v 0.070246 0.248623 0.981302
v -0.164410 0.032636 0.747081
v 0.385196 0.146344 1.196578
v 0.390781 0.026976 0.662340
v 0.577507 -0.246517 1.024080
v 0.715470 -0.179392 0.442000
v 0.792091 0.143045 0.271655
v 1.039144 0.116925 0.767254
vt 0.605256 0.698736
vt 0.441683 0.885288
vt 0.410341 0.590097
vt 0.530205 0.060425
vt 0.609196 0.398271
vt 0.503231 0.327748
vt 0.509044 0.559409
vt 0.719134 0.478938
vt 0.770037 0.649829
vt 0.742772 0.929711
vt 0.660733 0.056226
vt 0.802684 0.289877
vt 0.868347 0.076599
vt 0.756357 0.037038
vt 0.878749 0.498905
vt 0.953702 0.358141
vt 0.987673 0.644320
vt 0.912070 0.730461
vt 0.989114 0.149418
vt 0.101951 0.900148
vt 0.029587 1.000000
vt 0.004323 0.873061
vt 0.190186 0.461157
vt 0.152754 0.626415
vt 0.038717 0.568013
vt 0.050275 0.130379
vt 0.206804 0.240995
vt 0.028837 0.353282
vt 0.207824 0.041013
vt 0.335336 0.371195
vt 0.412083 0.125534
vt 0.261340 0.807406
vt 0.414869 0.000000
vt 0.536271 0.955391
vt 0.650666 0.966694
vt 0.909286 0.984803
vt 1.000000 1.000000
vt 0.113245 0.000000
vt 0.217798 0.957559
vt 0.300192 0.566857
vt 0.318191 0.040534
vt 0.334015 0.955408
vn -0.1505 0.9805 0.1267
vn -0.4267 -0.9028 0.0535
vn 0.8945 -0.3853 -0.2265
vn 0.6097 0.2188 -0.7618
vn -0.2665 0.8048 0.5303
vn -0.1080 -0.7616 0.6390
vn 0.1050 -0.9255 -0.3640
vn 0.3202 -0.8566 0.4045
vn -0.3031 0.0623 -0.9509
vn -0.4788 -0.7964 -0.3694
vn 0.5293 -0.7388 0.4171
vn -0.7546 0.5929 -0.2813
vn 0.2265 -0.9725 -0.0549
vn -0.9576 0.1305 -0.2568
vn 0.9184 -0.3040 -0.2532
vn -0.7944 -0.1014 0.5989
vn 0.4263 -0.8169 -0.3885
vn -0.7699 -0.3936 0.5023
vn 0.5937 -0.6410 -0.4863
vn -0.3864 -0.8549 0.3462
vn -0.0118 -0.7624 0.6470
vn 0.0149 -0.9937 -0.1110
vn 0.1318 0.9912 -0.0134
vn -0.9727 0.2322 0.0020
vn 0.3330 0.9414 0.0538
vn -0.9678 0.2514 -0.0077
vn 0.8322 0.2571 -0.4912
vn -0.2737 -0.9528 0.1311
vn -0.5496 0.7272 0.4112
vn -0.1901 0.4093 0.8924
vn 0.2964 0.6579 -0.6923
vn -0.3724 -0.1339 0.9184
vn 0.2549 0.9321 0.2573
vn 0.2607 0.2179 0.9405
vn -0.3107 -0.2278 -0.9228
vn -0.3975 0.7762 -0.4895
vn 0.7391 0.6110 0.2834
vn 0.0044 0.9935 0.1135
vn -0.0590 0.9982 0.0084
vn 0.2783 0.7664 -0.5789
vn 0.4949 0.3857 -0.7787
vn 0.4943 0.3336 -0.8028
vn -0.1281 0.5537 0.8228
vn -0.0456 0.8748 0.4823
vn -0.1243 -0.6225 -0.7727
vn 0.1029 -0.3572 0.9283
vn 0.1754 0.9637 0.2012
vn -0.0877 0.7746 -0.6264
vn -0.4936 0.1399 -0.8584
vn 0.5429 -0.1004 0.8338
vn -0.6998 0.0157 -0.7142
vn -0.6430 -0.2327 -0.7296
vn 0.6929 -0.6200 0.3681
vn -0.3632 -0.9119 -0.1912
vn -0.3355 -0.9277 -0.1638
vn 0.9135 -0.3198 0.2517
usemtl None
s off
f 4/1/1 27/2/1 28/3/1
f 2/4/2 5/5/2 3/6/2
f 3/6/3 5/5/3 1/7/3
f 8/8/4 4/1/4 5/5/4
f 7/9/5 9/10/5 4/1/5
f 6/11/6 10/12/6 5/5/6
f 10/12/7 8/8/7 5/5/7
f 11/13/8 10/12/8 9/14/8
f 12/15/9 7/9/9 8/8/9
f 16/16/10 12/15/10 10/12/10
f 11/13/11 16/16/11 10/12/11
f 12/15/12 14/17/12 13/18/12
f 15/19/13 16/16/13 11/13/13
f 16/16/14 14/17/14 12/15/14
f 18/20/15 15/21/15 13/22/15
f 19/23/16 17/24/16 14/25/16
f 15/26/17 20/27/17 16/28/17
f 19/23/18 14/25/18 16/28/18
f 22/29/19 20/27/19 15/26/19
f 20/27/20 19/23/20 16/28/20
f 25/30/21 19/23/21 20/27/21
f 26/31/22 25/30/22 20/27/22
f 28/3/23 27/2/23 21/32/23
f 2/4/24 26/31/24 27/33/24
f 1/7/25 4/1/25 28/3/25
f 27/2/26 4/1/26 2/34/26
f 1/7/27 5/5/27 4/1/27
f 2/4/28 6/11/28 5/5/28
f 4/1/29 6/35/29 2/34/29
f 4/1/30 9/10/30 6/35/30
f 8/8/31 7/9/31 4/1/31
f 9/14/32 10/12/32 6/11/32
f 7/9/33 13/18/33 9/10/33
f 13/18/34 11/36/34 9/10/34
f 10/12/35 12/15/35 8/8/35
f 12/15/36 13/18/36 7/9/36
f 13/18/37 15/37/37 11/36/37
f 14/25/38 18/20/38 13/22/38
f 17/24/39 21/32/39 14/25/39
f 14/25/40 21/32/40 18/20/40
f 18/38/41 22/29/41 15/26/41
f 18/20/42 21/32/42 22/39/42
f 19/23/43 23/40/43 17/24/43
f 17/24/44 23/40/44 21/32/44
f 22/29/45 24/41/45 20/27/45
f 25/30/46 23/40/46 19/23/46
f 23/40/47 28/3/47 21/32/47
f 21/32/48 24/42/48 22/39/48
f 24/41/49 26/31/49 20/27/49
f 25/30/50 28/3/50 23/40/50
f 21/32/51 27/2/51 24/42/51
f 27/33/52 26/31/52 24/41/52
f 25/30/53 3/6/53 28/3/53
f 26/31/54 3/6/54 25/30/54
f 26/31/55 2/4/55 3/6/55
f 3/6/56 1/7/56 28/3/56
